<svg height="512pt" viewBox="0 -38 512 512" width="512pt" xmlns="http://www.w3.org/2000/svg"><path d="m243.734375 4.226562-146.585937 113.789063h-77.148438c-11.046875 0-20 8.953125-20 19.996094v159.988281c0 11.046875 8.953125 19.996094 20 19.996094h77.148438l146.585937 113.789062c13.011719 10.105469 32.265625.9375 32.265625-15.796875v-395.964843c0-16.609376-19.148438-25.976563-32.265625-15.796876zm-159.734375 273.773438h-44v-119.988281h44zm152 97.148438-112-86.941407v-140.402343l112-86.941407zm276-157.140626c0 68.332032-27.050781 133.089844-74.980469 181.019532-7.8125 7.8125-20.476562 7.808594-28.285156 0-7.808594-7.8125-7.808594-20.476563 0-28.285156 40.796875-40.796876 63.265625-95.039063 63.265625-152.734376 0-57.695312-22.46875-111.9375-63.265625-152.734374-7.808594-7.8125-7.808594-20.472657 0-28.285157 7.8125-7.808593 20.476563-7.8125 28.285156 0 49.160157 49.160157 74.980469 114.476563 74.980469 181.019531zm-78 0c0 47.476563-18.535156 92.15625-52.1875 125.8125-7.8125 7.8125-20.476562 7.808594-28.285156 0-7.808594-7.8125-7.808594-20.476562 0-28.285156 26.101562-26.097656 40.472656-60.734375 40.472656-97.527344 0-36.792968-14.371094-71.429687-40.472656-97.527343-7.808594-7.8125-7.808594-20.472657 0-28.285157 7.8125-7.808593 20.476562-7.8125 28.285156 0 33.652344 33.652344 52.1875 78.332032 52.1875 125.8125zm-78 0c0 26.710938-10.402344 51.824219-29.289062 70.710938-7.8125 7.808594-20.476563 7.808594-28.285157 0-7.808593-7.8125-7.808593-20.476562 0-28.285156 11.332031-11.332032 17.574219-26.398438 17.574219-42.425782 0-16.027343-6.242188-31.09375-17.574219-42.425781-7.808593-7.8125-7.808593-20.476562 0-28.285156 7.8125-7.8125 20.472657-7.8125 28.285157 0 18.886718 18.886719 29.289062 44 29.289062 70.710937zm0 0"/></svg>