<?xml version="1.0" encoding="iso-8859-1"?>
<!-- Generator: Adobe Illustrator 16.0.0, SVG Export Plug-In . SVG Version: 6.00 Build 0)  -->
<!DOCTYPE svg PUBLIC "-//W3C//DTD SVG 1.1//EN" "http://www.w3.org/Graphics/SVG/1.1/DTD/svg11.dtd">
<svg version="1.1" id="Capa_1" xmlns="http://www.w3.org/2000/svg" xmlns:xlink="http://www.w3.org/1999/xlink" x="0px" y="0px"
	 width="612px" height="612px" viewBox="0 0 612 612" style="enable-background:new 0 0 612 612;" xml:space="preserve">
<g>
	<g id="Polygon_1">
		<g>
			<path d="M577.358,46.188H34.642C15.508,46.188,0,61.696,0,80.83v334.869c0,19.133,15.508,34.641,34.642,34.641h35.6
				l62.54,115.473l62.54-115.473h382.038c19.134,0,34.642-15.508,34.642-34.641V80.83C612,61.696,596.492,46.188,577.358,46.188z
				 M588.905,392.603c0,19.135-15.508,34.643-34.642,34.643H179.212l-45.646,79.051l-45.634-79.051H57.736
				c-19.134,0-34.642-15.508-34.642-34.643V103.924c0-19.134,15.508-34.642,34.642-34.642h496.528
				c19.134,0,34.642,15.508,34.642,34.642V392.603z"/>
		</g>
	</g>
</g>
<g>
</g>
<g>
</g>
<g>
</g>
<g>
</g>
<g>
</g>
<g>
</g>
<g>
</g>
<g>
</g>
<g>
</g>
<g>
</g>
<g>
</g>
<g>
</g>
<g>
</g>
<g>
</g>
<g>
</g>
</svg>
